<mxfile host="app.diagrams.net" modified="2023-07-17T05:09:46.100Z" agent="Mozilla/5.0 (Windows NT 10.0; Win64; x64) AppleWebKit/537.36 (KHTML, like Gecko) Chrome/114.0.0.0 Safari/537.36" version="21.6.2" etag="u7ImoUzRg4YzEtV9_WKy" type="github">
  <diagram name="Page-1" id="2NKTw5ZsqmzsYJGXLwJp">
    <mxGraphModel>
      <root>
        <mxCell id="0" />
        <mxCell id="1" parent="0" />
      </root>
    </mxGraphModel>
  </diagram>
</mxfile>
